<svg width="612" height="134" viewBox="0 0 612 134" fill="none" xmlns="http://www.w3.org/2000/svg">
<path d="M10.7992 109C9.96589 109 9.54922 108.583 9.54922 107.75V61.4C9.54922 60.8667 9.71589 60.3667 10.0492 59.9L21.8492 43.1C22.2159 42.6 22.7492 42.35 23.4492 42.35H41.3492C42.0826 42.35 42.6159 42.6 42.9492 43.1L54.8492 59.9C55.1826 60.3667 55.3492 60.8667 55.3492 61.4V107.75C55.3492 108.583 54.9326 109 54.0992 109H35.7992C34.9659 109 34.5492 108.583 34.5492 107.75V89H30.3492V107.75C30.3492 108.583 29.9326 109 29.0992 109H10.7992ZM32.4492 71.65C33.8826 71.65 35.0492 71.2 35.9492 70.3C36.8492 69.4 37.2992 68.25 37.2992 66.85C37.2992 65.4167 36.8492 64.25 35.9492 63.35C35.0492 62.45 33.8826 62 32.4492 62C31.0159 62 29.8492 62.45 28.9492 63.35C28.0492 64.25 27.5992 65.4167 27.5992 66.85C27.5992 68.25 28.0492 69.4 28.9492 70.3C29.8492 71.2 31.0159 71.65 32.4492 71.65ZM60.7992 124C59.9659 124 59.5492 123.583 59.5492 122.75V55.25C59.5492 54.4167 59.9659 54 60.7992 54H73.6992C74.2992 54 74.8492 54.2833 75.3492 54.85L77.8492 57.35L80.3492 54.85C80.9159 54.2833 81.5826 54 82.3492 54H87.5492C88.3159 54 88.9826 54.2833 89.5492 54.85L99.5492 64.85C100.083 65.3833 100.349 66.05 100.349 66.85V96.15C100.349 96.95 100.083 97.6167 99.5492 98.15L89.5492 108.15C88.9826 108.717 88.3159 109 87.5492 109H82.3492C81.5826 109 80.9159 108.717 80.3492 108.15L77.8492 105.65V122.75C77.8492 123.583 77.4326 124 76.5992 124H60.7992ZM77.8492 92.35H79.9492C80.6159 92.35 81.1326 92.1667 81.4992 91.8C81.8659 91.4333 82.0492 90.9167 82.0492 90.25V72.75C82.0492 72.0833 81.8826 71.5667 81.5492 71.2C81.2159 70.8333 80.7159 70.65 80.0492 70.65H79.8492C79.2159 70.65 78.7159 70.8333 78.3492 71.2C78.0159 71.5667 77.8492 72.0833 77.8492 72.75V92.35ZM105.819 124C104.985 124 104.569 123.583 104.569 122.75V55.25C104.569 54.4167 104.985 54 105.819 54H118.719C119.319 54 119.869 54.2833 120.369 54.85L122.869 57.35L125.369 54.85C125.935 54.2833 126.602 54 127.369 54H132.569C133.335 54 134.002 54.2833 134.569 54.85L144.569 64.85C145.102 65.3833 145.369 66.05 145.369 66.85V96.15C145.369 96.95 145.102 97.6167 144.569 98.15L134.569 108.15C134.002 108.717 133.335 109 132.569 109H127.369C126.602 109 125.935 108.717 125.369 108.15L122.869 105.65V122.75C122.869 123.583 122.452 124 121.619 124H105.819ZM122.869 92.35H124.969C125.635 92.35 126.152 92.1667 126.519 91.8C126.885 91.4333 127.069 90.9167 127.069 90.25V72.75C127.069 72.0833 126.902 71.5667 126.569 71.2C126.235 70.8333 125.735 70.65 125.069 70.65H124.869C124.235 70.65 123.735 70.8333 123.369 71.2C123.035 71.5667 122.869 72.0833 122.869 72.75V92.35ZM150.838 109C150.005 109 149.588 108.583 149.588 107.75V43.6C149.588 42.7667 150.005 42.35 150.838 42.35H166.638C167.472 42.35 167.888 42.7667 167.888 43.6V107.75C167.888 108.583 167.472 109 166.638 109H150.838ZM173.299 109C172.466 109 172.049 108.583 172.049 107.75V55.25C172.049 54.4167 172.466 54 173.299 54H189.099C189.933 54 190.349 54.4167 190.349 55.25V107.75C190.349 108.583 189.933 109 189.099 109H173.299ZM173.049 49.85C172.383 49.85 172.049 49.5167 172.049 48.85V42.5C172.049 41.8333 172.383 41.5 173.049 41.5H189.449C190.049 41.5 190.349 41.8333 190.349 42.5V48.85C190.349 49.5167 190.049 49.85 189.449 49.85H173.049ZM209.01 109C208.11 109 207.443 108.783 207.01 108.35L201.31 102.65L195.31 96.65C194.943 96.2833 194.71 96 194.61 95.8C194.543 95.5667 194.51 95.1833 194.51 94.65V68.35C194.51 67.7833 194.543 67.4 194.61 67.2C194.71 67 194.943 66.7167 195.31 66.35L201.26 60.4L207.01 54.65C207.277 54.3833 207.56 54.2167 207.86 54.15C208.16 54.05 208.543 54 209.01 54H220.66C221.493 54 221.91 54.4167 221.91 55.25V68.75C221.91 69.05 221.877 69.3167 221.81 69.55C221.777 69.7833 221.61 70.05 221.31 70.35L217.26 74.4L213.31 78.35V84.65L216.91 88.25L221.31 92.65C221.61 92.95 221.777 93.2167 221.81 93.45C221.877 93.6833 221.91 93.95 221.91 94.25V107.75C221.91 108.583 221.493 109 220.66 109H209.01ZM238.951 109C238.184 109 237.517 108.717 236.951 108.15L226.951 98.15C226.417 97.6167 226.151 96.95 226.151 96.15V66.85C226.151 66.05 226.417 65.3833 226.951 64.85L236.951 54.85C237.517 54.2833 238.184 54 238.951 54H265.701C266.534 54 266.951 54.4167 266.951 55.25V107.75C266.951 108.583 266.534 109 265.701 109H253.151C252.684 109 252.301 108.933 252.001 108.8C251.701 108.667 251.417 108.45 251.151 108.15L248.651 105.65L246.151 108.15C245.584 108.717 244.917 109 244.151 109H238.951ZM246.451 92.35H246.651C247.317 92.35 247.817 92.1667 248.151 91.8C248.484 91.4333 248.651 90.9167 248.651 90.25V70.65H246.551C245.884 70.65 245.367 70.8333 245.001 71.2C244.634 71.5667 244.451 72.0833 244.451 72.75V90.25C244.451 90.9167 244.617 91.4333 244.951 91.8C245.317 92.1667 245.817 92.35 246.451 92.35ZM284.57 109C283.804 109 283.137 108.717 282.57 108.15L274.22 99.85C273.687 99.2833 273.42 98.6167 273.42 97.85V70.65H271.32C270.487 70.65 270.07 70.2333 270.07 69.4V55.25C270.07 54.4167 270.487 54 271.32 54H273.42V47.75C273.42 46.9167 273.837 46.5 274.67 46.5H290.47C291.304 46.5 291.72 46.9167 291.72 47.75V54H296.57C297.404 54 297.82 54.4167 297.82 55.25V69.4C297.82 70.2333 297.404 70.65 296.57 70.65H291.72V90.65C291.72 91.3167 291.92 91.85 292.32 92.25L297.22 97.15C297.554 97.4833 297.72 97.9833 297.72 98.65V107.75C297.72 108.583 297.304 109 296.47 109H284.57ZM302.205 109C301.372 109 300.955 108.583 300.955 107.75V55.25C300.955 54.4167 301.372 54 302.205 54H318.005C318.839 54 319.255 54.4167 319.255 55.25V107.75C319.255 108.583 318.839 109 318.005 109H302.205ZM301.955 49.85C301.289 49.85 300.955 49.5167 300.955 48.85V42.5C300.955 41.8333 301.289 41.5 301.955 41.5H318.355C318.955 41.5 319.255 41.8333 319.255 42.5V48.85C319.255 49.5167 318.955 49.85 318.355 49.85H301.955ZM336.216 109C335.45 109 334.783 108.717 334.216 108.15L324.216 98.15C323.683 97.6167 323.416 96.95 323.416 96.15V66.85C323.416 66.05 323.683 65.3833 324.216 64.85L334.216 54.85C334.783 54.2833 335.45 54 336.216 54H351.416C352.183 54 352.85 54.2833 353.416 54.85L363.416 64.85C363.95 65.3833 364.216 66.05 364.216 66.85V96.15C364.216 96.95 363.95 97.6167 363.416 98.15L353.416 108.15C352.85 108.717 352.183 109 351.416 109H336.216ZM343.716 92.35H343.816C344.483 92.35 345 92.1667 345.366 91.8C345.733 91.4333 345.916 90.9167 345.916 90.25V72.75C345.916 72.0833 345.733 71.5667 345.366 71.2C345 70.8333 344.483 70.65 343.816 70.65H343.666C343 70.65 342.5 70.8333 342.166 71.2C341.866 71.5667 341.716 72.0833 341.716 72.75V90.25C341.716 90.9167 341.883 91.4333 342.216 91.8C342.583 92.1667 343.083 92.35 343.716 92.35ZM369.686 109C368.853 109 368.436 108.583 368.436 107.75V55.25C368.436 54.4167 368.853 54 369.686 54H396.436C397.203 54 397.869 54.2833 398.436 54.85L408.436 64.85C408.969 65.3833 409.236 66.05 409.236 66.85V107.75C409.236 108.583 408.819 109 407.986 109H392.186C391.353 109 390.936 108.583 390.936 107.75V74.4C390.936 73.0333 390.236 72.35 388.836 72.35H386.736V107.75C386.736 108.583 386.319 109 385.486 109H369.686ZM430.623 109C429.79 109 429.373 108.583 429.373 107.75V43.6C429.373 42.7667 429.79 42.35 430.623 42.35H465.423C466.257 42.35 466.673 42.7667 466.673 43.6V61.1C466.673 61.9333 466.257 62.35 465.423 62.35H450.173V66.5H465.423C466.257 66.5 466.673 66.9167 466.673 67.75V83.6C466.673 84.4333 466.257 84.85 465.423 84.85H450.173V107.75C450.173 108.583 449.757 109 448.923 109H430.623ZM483.677 109C482.911 109 482.244 108.717 481.677 108.15L471.677 98.15C471.144 97.6167 470.877 96.95 470.877 96.15V66.85C470.877 66.05 471.144 65.3833 471.677 64.85L481.677 54.85C482.244 54.2833 482.911 54 483.677 54H498.877C499.644 54 500.311 54.2833 500.877 54.85L510.877 64.85C511.411 65.3833 511.677 66.05 511.677 66.85V96.15C511.677 96.95 511.411 97.6167 510.877 98.15L500.877 108.15C500.311 108.717 499.644 109 498.877 109H483.677ZM491.177 92.35H491.277C491.944 92.35 492.461 92.1667 492.827 91.8C493.194 91.4333 493.377 90.9167 493.377 90.25V72.75C493.377 72.0833 493.194 71.5667 492.827 71.2C492.461 70.8333 491.944 70.65 491.277 70.65H491.127C490.461 70.65 489.961 70.8333 489.627 71.2C489.327 71.5667 489.177 72.0833 489.177 72.75V90.25C489.177 90.9167 489.344 91.4333 489.677 91.8C490.044 92.1667 490.544 92.35 491.177 92.35ZM517.147 109C516.314 109 515.897 108.583 515.897 107.75V55.25C515.897 54.4167 516.314 54 517.147 54H530.047C530.614 54 531.164 54.2833 531.697 54.85L534.147 57.3L537.047 54.6C537.514 54.2 538.047 54 538.647 54H542.397C543.23 54 543.647 54.4167 543.647 55.25V72.25C543.647 72.7833 543.597 73.15 543.497 73.35C543.43 73.5167 543.247 73.7 542.947 73.9L534.197 79.85V107.75C534.197 108.583 533.78 109 532.947 109H517.147ZM547.42 109C546.587 109 546.17 108.583 546.17 107.75V55.25C546.17 54.4167 546.587 54 547.42 54H569.17C569.937 54 570.604 54.2833 571.17 54.85L577.32 61H579.17L585.32 54.85C585.887 54.2833 586.554 54 587.32 54H596.67C597.437 54 598.104 54.2833 598.67 54.85L608.67 64.85C609.204 65.3833 609.47 66.05 609.47 66.85V107.75C609.47 108.583 609.054 109 608.22 109H592.42C591.587 109 591.17 108.583 591.17 107.75V74.4C591.17 73.0333 590.47 72.35 589.07 72.35H586.97V107.75C586.97 108.583 586.554 109 585.72 109H569.92C569.087 109 568.67 108.583 568.67 107.75V74.4C568.67 73.0333 567.97 72.35 566.57 72.35H564.47V107.75C564.47 108.583 564.054 109 563.22 109H547.42Z" fill="#050505"/>
<path d="M3.79922 100C2.96589 100 2.54922 99.5833 2.54922 98.75V52.4C2.54922 51.8667 2.71589 51.3667 3.04922 50.9L14.8492 34.1C15.2159 33.6 15.7492 33.35 16.4492 33.35H34.3492C35.0826 33.35 35.6159 33.6 35.9492 34.1L47.8492 50.9C48.1826 51.3667 48.3492 51.8667 48.3492 52.4V98.75C48.3492 99.5833 47.9326 100 47.0992 100H28.7992C27.9659 100 27.5492 99.5833 27.5492 98.75V80H23.3492V98.75C23.3492 99.5833 22.9326 100 22.0992 100H3.79922ZM25.4492 62.65C26.8826 62.65 28.0492 62.2 28.9492 61.3C29.8492 60.4 30.2992 59.25 30.2992 57.85C30.2992 56.4167 29.8492 55.25 28.9492 54.35C28.0492 53.45 26.8826 53 25.4492 53C24.0159 53 22.8492 53.45 21.9492 54.35C21.0492 55.25 20.5992 56.4167 20.5992 57.85C20.5992 59.25 21.0492 60.4 21.9492 61.3C22.8492 62.2 24.0159 62.65 25.4492 62.65ZM53.7992 115C52.9659 115 52.5492 114.583 52.5492 113.75V46.25C52.5492 45.4167 52.9659 45 53.7992 45H66.6992C67.2992 45 67.8492 45.2833 68.3492 45.85L70.8492 48.35L73.3492 45.85C73.9159 45.2833 74.5826 45 75.3492 45H80.5492C81.3159 45 81.9826 45.2833 82.5492 45.85L92.5492 55.85C93.0826 56.3833 93.3492 57.05 93.3492 57.85V87.15C93.3492 87.95 93.0826 88.6167 92.5492 89.15L82.5492 99.15C81.9826 99.7167 81.3159 100 80.5492 100H75.3492C74.5826 100 73.9159 99.7167 73.3492 99.15L70.8492 96.65V113.75C70.8492 114.583 70.4326 115 69.5992 115H53.7992ZM70.8492 83.35H72.9492C73.6159 83.35 74.1326 83.1667 74.4992 82.8C74.8659 82.4333 75.0492 81.9167 75.0492 81.25V63.75C75.0492 63.0833 74.8826 62.5667 74.5492 62.2C74.2159 61.8333 73.7159 61.65 73.0492 61.65H72.8492C72.2159 61.65 71.7159 61.8333 71.3492 62.2C71.0159 62.5667 70.8492 63.0833 70.8492 63.75V83.35ZM98.8188 115C97.9854 115 97.5688 114.583 97.5688 113.75V46.25C97.5688 45.4167 97.9854 45 98.8188 45H111.719C112.319 45 112.869 45.2833 113.369 45.85L115.869 48.35L118.369 45.85C118.935 45.2833 119.602 45 120.369 45H125.569C126.335 45 127.002 45.2833 127.569 45.85L137.569 55.85C138.102 56.3833 138.369 57.05 138.369 57.85V87.15C138.369 87.95 138.102 88.6167 137.569 89.15L127.569 99.15C127.002 99.7167 126.335 100 125.569 100H120.369C119.602 100 118.935 99.7167 118.369 99.15L115.869 96.65V113.75C115.869 114.583 115.452 115 114.619 115H98.8188ZM115.869 83.35H117.969C118.635 83.35 119.152 83.1667 119.519 82.8C119.885 82.4333 120.069 81.9167 120.069 81.25V63.75C120.069 63.0833 119.902 62.5667 119.569 62.2C119.235 61.8333 118.735 61.65 118.069 61.65H117.869C117.235 61.65 116.735 61.8333 116.369 62.2C116.035 62.5667 115.869 63.0833 115.869 63.75V83.35ZM143.838 100C143.005 100 142.588 99.5833 142.588 98.75V34.6C142.588 33.7667 143.005 33.35 143.838 33.35H159.638C160.472 33.35 160.888 33.7667 160.888 34.6V98.75C160.888 99.5833 160.472 100 159.638 100H143.838ZM166.299 100C165.466 100 165.049 99.5833 165.049 98.75V46.25C165.049 45.4167 165.466 45 166.299 45H182.099C182.933 45 183.349 45.4167 183.349 46.25V98.75C183.349 99.5833 182.933 100 182.099 100H166.299ZM166.049 40.85C165.383 40.85 165.049 40.5167 165.049 39.85V33.5C165.049 32.8333 165.383 32.5 166.049 32.5H182.449C183.049 32.5 183.349 32.8333 183.349 33.5V39.85C183.349 40.5167 183.049 40.85 182.449 40.85H166.049ZM202.01 100C201.11 100 200.443 99.7833 200.01 99.35L194.31 93.65L188.31 87.65C187.943 87.2833 187.71 87 187.61 86.8C187.543 86.5667 187.51 86.1833 187.51 85.65V59.35C187.51 58.7833 187.543 58.4 187.61 58.2C187.71 58 187.943 57.7167 188.31 57.35L194.26 51.4L200.01 45.65C200.277 45.3833 200.56 45.2167 200.86 45.15C201.16 45.05 201.543 45 202.01 45H213.66C214.493 45 214.91 45.4167 214.91 46.25V59.75C214.91 60.05 214.877 60.3167 214.81 60.55C214.777 60.7833 214.61 61.05 214.31 61.35L210.26 65.4L206.31 69.35V75.65L209.91 79.25L214.31 83.65C214.61 83.95 214.777 84.2167 214.81 84.45C214.877 84.6833 214.91 84.95 214.91 85.25V98.75C214.91 99.5833 214.493 100 213.66 100H202.01ZM231.951 100C231.184 100 230.517 99.7167 229.951 99.15L219.951 89.15C219.417 88.6167 219.151 87.95 219.151 87.15V57.85C219.151 57.05 219.417 56.3833 219.951 55.85L229.951 45.85C230.517 45.2833 231.184 45 231.951 45H258.701C259.534 45 259.951 45.4167 259.951 46.25V98.75C259.951 99.5833 259.534 100 258.701 100H246.151C245.684 100 245.301 99.9333 245.001 99.8C244.701 99.6667 244.417 99.45 244.151 99.15L241.651 96.65L239.151 99.15C238.584 99.7167 237.917 100 237.151 100H231.951ZM239.451 83.35H239.651C240.317 83.35 240.817 83.1667 241.151 82.8C241.484 82.4333 241.651 81.9167 241.651 81.25V61.65H239.551C238.884 61.65 238.367 61.8333 238.001 62.2C237.634 62.5667 237.451 63.0833 237.451 63.75V81.25C237.451 81.9167 237.617 82.4333 237.951 82.8C238.317 83.1667 238.817 83.35 239.451 83.35ZM277.57 100C276.804 100 276.137 99.7167 275.57 99.15L267.22 90.85C266.687 90.2833 266.42 89.6167 266.42 88.85V61.65H264.32C263.487 61.65 263.07 61.2333 263.07 60.4V46.25C263.07 45.4167 263.487 45 264.32 45H266.42V38.75C266.42 37.9167 266.837 37.5 267.67 37.5H283.47C284.304 37.5 284.72 37.9167 284.72 38.75V45H289.57C290.404 45 290.82 45.4167 290.82 46.25V60.4C290.82 61.2333 290.404 61.65 289.57 61.65H284.72V81.65C284.72 82.3167 284.92 82.85 285.32 83.25L290.22 88.15C290.554 88.4833 290.72 88.9833 290.72 89.65V98.75C290.72 99.5833 290.304 100 289.47 100H277.57ZM295.205 100C294.372 100 293.955 99.5833 293.955 98.75V46.25C293.955 45.4167 294.372 45 295.205 45H311.005C311.839 45 312.255 45.4167 312.255 46.25V98.75C312.255 99.5833 311.839 100 311.005 100H295.205ZM294.955 40.85C294.289 40.85 293.955 40.5167 293.955 39.85V33.5C293.955 32.8333 294.289 32.5 294.955 32.5H311.355C311.955 32.5 312.255 32.8333 312.255 33.5V39.85C312.255 40.5167 311.955 40.85 311.355 40.85H294.955ZM329.216 100C328.45 100 327.783 99.7167 327.216 99.15L317.216 89.15C316.683 88.6167 316.416 87.95 316.416 87.15V57.85C316.416 57.05 316.683 56.3833 317.216 55.85L327.216 45.85C327.783 45.2833 328.45 45 329.216 45H344.416C345.183 45 345.85 45.2833 346.416 45.85L356.416 55.85C356.95 56.3833 357.216 57.05 357.216 57.85V87.15C357.216 87.95 356.95 88.6167 356.416 89.15L346.416 99.15C345.85 99.7167 345.183 100 344.416 100H329.216ZM336.716 83.35H336.816C337.483 83.35 338 83.1667 338.366 82.8C338.733 82.4333 338.916 81.9167 338.916 81.25V63.75C338.916 63.0833 338.733 62.5667 338.366 62.2C338 61.8333 337.483 61.65 336.816 61.65H336.666C336 61.65 335.5 61.8333 335.166 62.2C334.866 62.5667 334.716 63.0833 334.716 63.75V81.25C334.716 81.9167 334.883 82.4333 335.216 82.8C335.583 83.1667 336.083 83.35 336.716 83.35ZM362.686 100C361.853 100 361.436 99.5833 361.436 98.75V46.25C361.436 45.4167 361.853 45 362.686 45H389.436C390.203 45 390.869 45.2833 391.436 45.85L401.436 55.85C401.969 56.3833 402.236 57.05 402.236 57.85V98.75C402.236 99.5833 401.819 100 400.986 100H385.186C384.353 100 383.936 99.5833 383.936 98.75V65.4C383.936 64.0333 383.236 63.35 381.836 63.35H379.736V98.75C379.736 99.5833 379.319 100 378.486 100H362.686ZM423.623 100C422.79 100 422.373 99.5833 422.373 98.75V34.6C422.373 33.7667 422.79 33.35 423.623 33.35H458.423C459.257 33.35 459.673 33.7667 459.673 34.6V52.1C459.673 52.9333 459.257 53.35 458.423 53.35H443.173V57.5H458.423C459.257 57.5 459.673 57.9167 459.673 58.75V74.6C459.673 75.4333 459.257 75.85 458.423 75.85H443.173V98.75C443.173 99.5833 442.757 100 441.923 100H423.623ZM476.677 100C475.911 100 475.244 99.7167 474.677 99.15L464.677 89.15C464.144 88.6167 463.877 87.95 463.877 87.15V57.85C463.877 57.05 464.144 56.3833 464.677 55.85L474.677 45.85C475.244 45.2833 475.911 45 476.677 45H491.877C492.644 45 493.311 45.2833 493.877 45.85L503.877 55.85C504.411 56.3833 504.677 57.05 504.677 57.85V87.15C504.677 87.95 504.411 88.6167 503.877 89.15L493.877 99.15C493.311 99.7167 492.644 100 491.877 100H476.677ZM484.177 83.35H484.277C484.944 83.35 485.461 83.1667 485.827 82.8C486.194 82.4333 486.377 81.9167 486.377 81.25V63.75C486.377 63.0833 486.194 62.5667 485.827 62.2C485.461 61.8333 484.944 61.65 484.277 61.65H484.127C483.461 61.65 482.961 61.8333 482.627 62.2C482.327 62.5667 482.177 63.0833 482.177 63.75V81.25C482.177 81.9167 482.344 82.4333 482.677 82.8C483.044 83.1667 483.544 83.35 484.177 83.35ZM510.147 100C509.314 100 508.897 99.5833 508.897 98.75V46.25C508.897 45.4167 509.314 45 510.147 45H523.047C523.614 45 524.164 45.2833 524.697 45.85L527.147 48.3L530.047 45.6C530.514 45.2 531.047 45 531.647 45H535.397C536.23 45 536.647 45.4167 536.647 46.25V63.25C536.647 63.7833 536.597 64.15 536.497 64.35C536.43 64.5167 536.247 64.7 535.947 64.9L527.197 70.85V98.75C527.197 99.5833 526.78 100 525.947 100H510.147ZM540.42 100C539.587 100 539.17 99.5833 539.17 98.75V46.25C539.17 45.4167 539.587 45 540.42 45H562.17C562.937 45 563.604 45.2833 564.17 45.85L570.32 52H572.17L578.32 45.85C578.887 45.2833 579.554 45 580.32 45H589.67C590.437 45 591.104 45.2833 591.67 45.85L601.67 55.85C602.204 56.3833 602.47 57.05 602.47 57.85V98.75C602.47 99.5833 602.054 100 601.22 100H585.42C584.587 100 584.17 99.5833 584.17 98.75V65.4C584.17 64.0333 583.47 63.35 582.07 63.35H579.97V98.75C579.97 99.5833 579.554 100 578.72 100H562.92C562.087 100 561.67 99.5833 561.67 98.75V65.4C561.67 64.0333 560.97 63.35 559.57 63.35H557.47V98.75C557.47 99.5833 557.054 100 556.22 100H540.42Z" fill="#D48F31"/>
</svg>
