<svg width="305" height="88" viewBox="0 0 305 88" fill="none" xmlns="http://www.w3.org/2000/svg">
<rect x="5" y="8" width="300" height="80" rx="40" fill="black"/>
<rect width="300" height="80" rx="40" fill="#D48F31"/>
<path d="M88.1045 56C87.7979 56 87.5312 55.9133 87.3045 55.74L84.0445 52.76L80.7445 48.46C80.5979 48.2733 80.5045 48.16 80.4645 48.12C80.4245 48.0667 80.4045 47.9467 80.4045 47.76V37.56C80.4045 37.3733 80.4245 37.2533 80.4645 37.2C80.5179 37.1467 80.6112 37.0333 80.7445 36.86L83.8045 32.9L87.3045 29.6C87.4512 29.48 87.5645 29.4067 87.6445 29.38C87.7379 29.3533 87.8912 29.34 88.1045 29.34H93.0445C93.3779 29.34 93.5445 29.5067 93.5445 29.84V33.04C93.5445 33.1467 93.5312 33.26 93.5045 33.38C93.4912 33.4867 93.4245 33.58 93.3045 33.66L89.5445 36.24L87.0845 39.4V45.94L89.5845 49.1L93.3045 51.66C93.4112 51.7267 93.4779 51.8067 93.5045 51.9C93.5312 51.9933 93.5445 52.0933 93.5445 52.2V55.5C93.5445 55.8333 93.3779 56 93.0445 56H88.1045ZM102.56 56C102.253 56 101.986 55.8867 101.76 55.66L97.7595 51.66C97.5329 51.4467 97.4195 51.18 97.4195 50.86V34.46C97.4195 34.1533 97.5329 33.8867 97.7595 33.66L101.76 29.66C101.986 29.4467 102.253 29.34 102.56 29.34H110.42C110.74 29.34 111.006 29.4467 111.22 29.66L115.22 33.66C115.446 33.8867 115.56 34.1533 115.56 34.46V50.86C115.56 51.18 115.446 51.4467 115.22 51.66L111.22 55.66C111.006 55.8867 110.74 56 110.42 56H102.56ZM104.92 50.66H108.06C108.62 50.66 108.9 50.2867 108.9 49.54V35.8C108.9 35.04 108.62 34.66 108.06 34.66H104.92C104.373 34.66 104.1 35.04 104.1 35.8V49.54C104.1 50.2867 104.373 50.66 104.92 50.66ZM120.849 56C120.516 56 120.349 55.8333 120.349 55.5V29.84C120.349 29.5067 120.516 29.34 120.849 29.34H132.209C132.529 29.34 132.796 29.4467 133.009 29.66L137.009 33.66C137.236 33.8867 137.349 34.1533 137.349 34.46V55.5C137.349 55.8333 137.183 56 136.849 56H131.189C130.856 56 130.689 55.8333 130.689 55.5V34.66H127.009V55.5C127.009 55.8333 126.843 56 126.509 56H120.849ZM142.646 56C142.313 56 142.146 55.8333 142.146 55.5V29.84C142.146 29.5067 142.313 29.34 142.646 29.34H156.346C156.679 29.34 156.846 29.5067 156.846 29.84V34.16C156.846 34.4933 156.679 34.66 156.346 34.66H148.806V41.34H155.346C155.679 41.34 155.846 41.5067 155.846 41.84V46.16C155.846 46.4933 155.679 46.66 155.346 46.66H148.806V55.5C148.806 55.8333 148.639 56 148.306 56H142.646ZM160.537 56C160.203 56 160.037 55.8333 160.037 55.5V29.84C160.037 29.5067 160.203 29.34 160.537 29.34H171.377C171.697 29.34 171.963 29.4267 172.177 29.6L176.777 34.16C176.923 34.2933 177.01 34.4067 177.037 34.5C177.077 34.5933 177.097 34.7467 177.097 34.96V40.44C177.097 40.6133 177.03 40.7667 176.897 40.9L174.697 43.04L172.837 44.64L175.037 47.56L177.297 52.4C177.35 52.52 177.39 52.64 177.417 52.76C177.457 52.8667 177.477 53 177.477 53.16V55.5C177.477 55.8333 177.31 56 176.977 56H171.697C171.403 56 171.203 55.8667 171.097 55.6L167.877 46.24H166.377V55.5C166.377 55.8333 166.21 56 165.877 56H160.537ZM168.577 41.34C169.683 41.34 170.437 41.1133 170.837 40.66C171.237 40.1933 171.437 39.3267 171.437 38.06C171.437 36.78 171.237 35.9133 170.837 35.46C170.437 34.9933 169.683 34.76 168.577 34.76C167.483 34.76 166.73 34.9933 166.317 35.46C165.903 35.9133 165.697 36.78 165.697 38.06C165.697 39.3267 165.903 40.1933 166.317 40.66C166.73 41.1133 167.483 41.34 168.577 41.34ZM181.162 56C180.828 56 180.662 55.8333 180.662 55.5V29.84C180.662 29.5067 180.828 29.34 181.162 29.34H186.822C187.155 29.34 187.322 29.5067 187.322 29.84V55.5C187.322 55.8333 187.155 56 186.822 56H181.162ZM192.607 56C192.274 56 192.107 55.8333 192.107 55.5V33.8C192.107 33.4933 192.22 33.2267 192.447 33L195.767 29.66C195.994 29.4467 196.26 29.34 196.567 29.34H201.147C201.454 29.34 201.72 29.4467 201.947 29.66L205.307 33.04H206.247L209.607 29.66C209.834 29.4467 210.1 29.34 210.407 29.34H214.967C215.287 29.34 215.554 29.4467 215.767 29.66L219.107 33C219.334 33.2267 219.447 33.4933 219.447 33.8V55.5C219.447 55.8333 219.28 56 218.947 56H213.267C212.934 56 212.767 55.8333 212.767 55.5V34.66H209.107V55.5C209.107 55.8333 208.94 56 208.607 56H202.947C202.614 56 202.447 55.8333 202.447 55.5V34.66H198.767V55.5C198.767 55.8333 198.6 56 198.267 56H192.607Z" fill="white"/>
</svg>
