<svg width="30" height="30" viewBox="0 0 30 30" fill="none" xmlns="http://www.w3.org/2000/svg">
<g clip-path="url(#clip0_454_32)">
<path d="M10.4508 0.986424C7.45335 2.02627 4.86834 3.99994 3.07548 6.61752C1.28262 9.23511 0.376419 12.3586 0.489976 15.5293C0.603533 18.7 1.73086 21.7507 3.70639 24.2333C5.68191 26.7159 8.40148 28.4996 11.4657 29.3224C13.9499 29.9634 16.5526 29.9915 19.05 29.4044C21.3125 28.8962 23.4042 27.8092 25.1203 26.2497C26.9065 24.5771 28.2029 22.4493 28.8703 20.095C29.5958 17.5349 29.7249 14.8425 29.2477 12.2247H15.2977V18.0114H23.3766C23.2151 18.9344 22.8691 19.8152 22.3593 20.6013C21.8495 21.3874 21.1863 22.0626 20.4094 22.5864C19.4229 23.239 18.3108 23.6781 17.1446 23.8755C15.9749 24.093 14.7752 24.093 13.6055 23.8755C12.42 23.6304 11.2985 23.1411 10.3125 22.4388C8.72851 21.3175 7.53912 19.7245 6.9141 17.8872C6.2785 16.0155 6.2785 13.9863 6.9141 12.1145C7.359 10.8026 8.09449 9.60799 9.06566 8.62002C10.177 7.46864 11.5841 6.64564 13.1324 6.24129C14.6808 5.83695 16.3106 5.86689 17.843 6.32783C19.0401 6.69531 20.1348 7.33737 21.0399 8.20283C21.9508 7.29658 22.8602 6.38799 23.768 5.47705C24.2368 4.98721 24.7477 4.5208 25.2094 4.01924C23.8279 2.73363 22.2063 1.73328 20.4375 1.07549C17.2165 -0.0940682 13.6922 -0.125499 10.4508 0.986424Z" fill="white"/>
<path d="M10.4504 0.986587C13.6915 -0.126092 17.2158 -0.0954888 20.4371 1.07331C22.2062 1.73556 23.8271 2.74074 25.2066 4.03112C24.7379 4.53268 24.2434 5.00143 23.7652 5.48893C22.8559 6.39674 21.9473 7.30143 21.0395 8.20299C20.1344 7.33753 19.0397 6.69547 17.8426 6.32799C16.3106 5.86543 14.6809 5.83376 13.1322 6.23645C11.5834 6.63914 10.1755 7.46064 9.06289 8.61081C8.09172 9.59878 7.35623 10.7933 6.91133 12.1053L2.05273 8.34362C3.79182 4.89493 6.80293 2.25696 10.4504 0.986587Z" fill="#E33629"/>
<path d="M0.764251 12.0703C1.02539 10.7761 1.45895 9.52272 2.05331 8.34375L6.91191 12.1148C6.27632 13.9866 6.27632 16.0158 6.91191 17.8875C5.29316 19.1375 3.67363 20.3938 2.05331 21.6563C0.565385 18.6945 0.111593 15.3199 0.764251 12.0703Z" fill="#F8BD00"/>
<path d="M15.2979 12.2227H29.2479C29.7251 14.8405 29.596 17.5328 28.8706 20.093C28.2032 22.4472 26.9067 24.575 25.1206 26.2477C23.5526 25.0242 21.9776 23.8102 20.4096 22.5867C21.187 22.0624 21.8505 21.3865 22.3604 20.5995C22.8702 19.8126 23.216 18.9308 23.3768 18.007H15.2979C15.2956 16.0805 15.2979 14.1516 15.2979 12.2227Z" fill="#587DBD"/>
<path d="M2.05078 21.6564C3.67109 20.4064 5.29062 19.1502 6.90937 17.8877C7.53564 19.7257 8.72673 21.3187 10.3125 22.4393C11.3016 23.1383 12.4255 23.6236 13.6125 23.8643C14.7822 24.0817 15.9819 24.0817 17.1516 23.8643C18.3178 23.6668 19.4299 23.2278 20.4164 22.5752C21.9844 23.7986 23.5594 25.0127 25.1273 26.2361C23.4115 27.7964 21.3197 28.8843 19.057 29.3932C16.5596 29.9803 13.9569 29.9521 11.4727 29.3111C9.5079 28.7865 7.67268 27.8617 6.08203 26.5947C4.39842 25.2581 3.02333 23.5736 2.05078 21.6564Z" fill="#319F43"/>
</g>
<defs>
<clipPath id="clip0_454_32">
<rect width="30" height="30" fill="white"/>
</clipPath>
</defs>
</svg>
