<svg width="14" height="14" viewBox="0 0 14 14" fill="none" xmlns="http://www.w3.org/2000/svg">
<path d="M5.768 0.25H8.232C9.045 0.25 9.701 0.25 10.232 0.293C10.778 0.338 11.258 0.433 11.702 0.659C12.4081 1.01837 12.9822 1.59214 13.342 2.298C13.568 2.742 13.662 3.222 13.707 3.768C13.75 4.299 13.75 4.955 13.75 5.768V8.232C13.75 9.045 13.75 9.701 13.707 10.232C13.662 10.778 13.567 11.258 13.341 11.702C12.9816 12.4081 12.4079 12.9822 11.702 13.342C11.258 13.568 10.778 13.662 10.232 13.707C9.701 13.75 9.045 13.75 8.232 13.75H4.622C2.617 13.75 1.612 11.326 3.03 9.909L7.44 5.5H5.875C5.67609 5.5 5.48532 5.42098 5.34467 5.28033C5.20402 5.13968 5.125 4.94891 5.125 4.75C5.125 4.55109 5.20402 4.36032 5.34467 4.21967C5.48532 4.07902 5.67609 4 5.875 4H9.25C9.44891 4 9.63968 4.07902 9.78033 4.21967C9.92098 4.36032 10 4.55109 10 4.75V8.125C10 8.32391 9.92098 8.51468 9.78033 8.65533C9.63968 8.79598 9.44891 8.875 9.25 8.875C9.05109 8.875 8.86032 8.79598 8.71967 8.65533C8.57902 8.51468 8.5 8.32391 8.5 8.125V6.561L4.091 10.97C3.98624 11.0749 3.91492 11.2085 3.88603 11.3539C3.85715 11.4993 3.872 11.65 3.92871 11.7869C3.98542 11.9239 4.08145 12.041 4.20467 12.1234C4.32788 12.2058 4.47276 12.2499 4.621 12.25H8.2C9.053 12.25 9.647 12.25 10.11 12.212C10.563 12.174 10.824 12.105 11.022 12.005C11.445 11.789 11.789 11.445 12.005 11.022C12.105 10.824 12.175 10.563 12.212 10.109C12.249 9.647 12.25 9.053 12.25 8.2V5.8C12.25 4.948 12.25 4.353 12.212 3.89C12.174 3.437 12.105 3.176 12.005 2.979C11.7895 2.55541 11.4454 2.21095 11.022 1.995C10.824 1.895 10.563 1.825 10.109 1.788C9.647 1.751 9.053 1.75 8.2 1.75H5.8C4.948 1.75 4.353 1.75 3.89 1.788C3.437 1.825 3.176 1.895 2.979 1.995C2.55526 2.21078 2.21078 2.55526 1.995 2.979C1.895 3.176 1.825 3.437 1.788 3.891C1.751 4.353 1.75 4.948 1.75 5.8V8.5C1.75 8.69891 1.67098 8.88968 1.53033 9.03033C1.38968 9.17098 1.19891 9.25 1 9.25C0.801088 9.25 0.610322 9.17098 0.46967 9.03033C0.329018 8.88968 0.25 8.69891 0.25 8.5V5.768C0.25 4.955 0.25 4.299 0.293 3.768C0.338 3.222 0.433 2.742 0.659 2.298C1.01837 1.59192 1.59214 1.0178 2.298 0.658C2.742 0.432 3.222 0.338 3.768 0.293C4.299 0.25 4.955 0.25 5.768 0.25Z" fill="white"/>
</svg>
