<svg width="355" height="106" viewBox="0 0 355 106" fill="none" xmlns="http://www.w3.org/2000/svg">
<path d="M12.9719 86C12.3052 86 11.9719 85.6667 11.9719 85V33.68C11.9719 33.0133 12.3052 32.68 12.9719 32.68H34.6519C35.2919 32.68 35.8252 32.8533 36.2519 33.2L45.4519 42.32C45.7452 42.5867 45.9185 42.8133 45.9719 43C46.0519 43.1867 46.0919 43.4933 46.0919 43.92V54.88C46.0919 55.2267 45.9585 55.5333 45.6919 55.8L41.2919 60.08L37.5719 63.28L41.9719 69.12L46.4919 78.8C46.5985 79.04 46.6785 79.28 46.7319 79.52C46.8119 79.7333 46.8519 80 46.8519 80.32V85C46.8519 85.6667 46.5185 86 45.8519 86H35.2919C34.7052 86 34.3052 85.7333 34.0919 85.2L27.6519 66.48H24.6519V85C24.6519 85.6667 24.3185 86 23.6519 86H12.9719ZM29.0519 56.68C31.2652 56.68 32.7719 56.2267 33.5719 55.32C34.3719 54.3867 34.7719 52.6533 34.7719 50.12C34.7719 47.56 34.3719 45.8267 33.5719 44.92C32.7719 43.9867 31.2652 43.52 29.0519 43.52C26.8652 43.52 25.3585 43.9867 24.5319 44.92C23.7052 45.8267 23.2919 47.56 23.2919 50.12C23.2919 52.6533 23.7052 54.3867 24.5319 55.32C25.3585 56.2267 26.8652 56.68 29.0519 56.68ZM63.2219 86C62.6085 86 62.0752 85.7733 61.6219 85.32L53.6219 77.32C53.1685 76.8933 52.9419 76.36 52.9419 75.72V52.28C52.9419 51.64 53.1685 51.1067 53.6219 50.68L61.6219 42.68C62.0752 42.2267 62.6085 42 63.2219 42H84.6219C85.2885 42 85.6219 42.3333 85.6219 43V85C85.6219 85.6667 85.2885 86 84.6219 86H76.3019C75.9552 86 75.6885 85.9333 75.5019 85.8C75.3419 85.6667 75.1552 85.5067 74.9419 85.32L72.9419 83.32L70.9419 85.32C70.5152 85.7733 69.9819 86 69.3419 86H63.2219ZM67.9019 76.68H70.7019C71.5552 76.68 72.1419 76.5067 72.4619 76.16C72.7819 75.8133 72.9419 75.2 72.9419 74.32V51.32H67.9019C67.0219 51.32 66.4219 51.4933 66.1019 51.84C65.7819 52.1867 65.6219 52.8 65.6219 53.68V74.32C65.6219 75.2 65.7819 75.8133 66.1019 76.16C66.4219 76.5067 67.0219 76.68 67.9019 76.68ZM95.9406 98C95.274 98 94.9406 97.6667 94.9406 97V43C94.9406 42.3333 95.274 42 95.9406 42H104.221C104.701 42 105.167 42.2267 105.621 42.68L107.621 44.68L109.621 42.68C110.047 42.2267 110.581 42 111.221 42H117.341C117.954 42 118.487 42.2267 118.941 42.68L126.941 50.68C127.394 51.1067 127.621 51.64 127.621 52.28V75.72C127.621 76.36 127.394 76.8933 126.941 77.32L118.941 85.32C118.487 85.7733 117.954 86 117.341 86H111.221C110.581 86 110.047 85.7733 109.621 85.32L107.621 83.32V97C107.621 97.6667 107.287 98 106.621 98H95.9406ZM107.621 76.68H112.661C113.541 76.68 114.141 76.5067 114.461 76.16C114.781 75.8133 114.941 75.2 114.941 74.32V53.68C114.941 52.8 114.781 52.1867 114.461 51.84C114.141 51.4933 113.541 51.32 112.661 51.32H109.861C109.007 51.32 108.421 51.4933 108.101 51.84C107.781 52.1867 107.621 52.8 107.621 53.68V76.68ZM137.972 86C137.305 86 136.972 85.6667 136.972 85V33.68C136.972 33.0133 137.305 32.68 137.972 32.68H160.692C161.332 32.68 161.865 32.8933 162.292 33.32L170.292 41.32C170.745 41.7733 170.972 42.3067 170.972 42.92V85C170.972 85.6667 170.639 86 169.972 86H158.652C157.985 86 157.652 85.6667 157.652 85V43.32H150.292V85C150.292 85.6667 149.959 86 149.292 86H137.972ZM190.566 86C189.952 86 189.419 85.7733 188.966 85.32L180.966 77.32C180.512 76.8933 180.286 76.36 180.286 75.72V52.28C180.286 51.64 180.512 51.1067 180.966 50.68L188.966 42.68C189.419 42.2267 189.952 42 190.566 42H211.966C212.632 42 212.966 42.3333 212.966 43V85C212.966 85.6667 212.632 86 211.966 86H203.646C203.299 86 203.032 85.9333 202.846 85.8C202.686 85.6667 202.499 85.5067 202.286 85.32L200.286 83.32L198.286 85.32C197.859 85.7733 197.326 86 196.686 86H190.566ZM195.246 76.68H198.046C198.899 76.68 199.486 76.5067 199.806 76.16C200.126 75.8133 200.286 75.2 200.286 74.32V51.32H195.246C194.366 51.32 193.766 51.4933 193.446 51.84C193.126 52.1867 192.966 52.8 192.966 53.68V74.32C192.966 75.2 193.126 75.8133 193.446 76.16C193.766 76.5067 194.366 76.68 195.246 76.68ZM223.284 86C222.618 86 222.284 85.6667 222.284 85V43C222.284 42.3333 222.618 42 223.284 42H241.484C242.098 42 242.631 42.2267 243.084 42.68L248.004 47.6H249.484L254.404 42.68C254.858 42.2267 255.391 42 256.004 42H264.684C265.298 42 265.831 42.2267 266.284 42.68L274.284 50.68C274.738 51.1067 274.964 51.64 274.964 52.28V85C274.964 85.6667 274.631 86 273.964 86H263.284C262.618 86 262.284 85.6667 262.284 85V53.68C262.284 52.56 261.724 52 260.604 52H254.964V85C254.964 85.6667 254.631 86 253.964 86H243.284C242.618 86 242.284 85.6667 242.284 85V53.68C242.284 52.56 241.724 52 240.604 52H234.964V85C234.964 85.6667 234.631 86 233.964 86H223.284ZM302.236 86C301.969 86 301.676 85.96 301.356 85.88C301.062 85.8 300.782 85.7333 300.516 85.68L293.396 83.92L285.236 81.2C284.436 80.9333 284.036 80.16 284.036 78.88V52.28C284.036 51.64 284.262 51.1067 284.716 50.68L292.716 42.68C293.169 42.2267 293.702 42 294.316 42H307.116C307.729 42 308.262 42.2267 308.716 42.68L316.716 50.68C317.169 51.1067 317.396 51.64 317.396 52.28V68.68H295.916L295.636 74L301.316 75.88L311.516 76.6C311.969 76.68 312.196 76.9867 312.196 77.52V85C312.196 85.6667 311.862 86 311.196 86H302.236ZM300.636 62.4H301.396C302.702 62.4 303.742 61.9067 304.516 60.92C305.316 59.9333 305.716 58.6 305.716 56.92V56.12C305.716 54.4667 305.316 53.1467 304.516 52.16C303.742 51.1733 302.702 50.68 301.396 50.68H300.596C299.316 50.68 298.289 51.1733 297.516 52.16C296.769 53.1467 296.396 54.4667 296.396 56.12V56.92C296.396 58.6 296.769 59.9333 297.516 60.92C298.289 61.9067 299.329 62.4 300.636 62.4ZM337.856 85.96C337.19 85.96 336.856 85.6 336.856 84.88V72.16C336.856 71.44 337.19 71.08 337.856 71.08H350.656C351.323 71.08 351.656 71.44 351.656 72.16V84.88C351.656 85.6 351.323 85.96 350.656 85.96H337.856ZM337.856 58.36C337.19 58.36 336.856 58 336.856 57.28V44.56C336.856 43.84 337.19 43.48 337.856 43.48H350.656C351.323 43.48 351.656 43.84 351.656 44.56V57.28C351.656 58 351.323 58.36 350.656 58.36H337.856Z" fill="black"/>
<path d="M5.97188 80C5.30521 80 4.97188 79.6667 4.97188 79V27.68C4.97188 27.0133 5.30521 26.68 5.97188 26.68H27.6519C28.2919 26.68 28.8252 26.8533 29.2519 27.2L38.4519 36.32C38.7452 36.5867 38.9185 36.8133 38.9719 37C39.0519 37.1867 39.0919 37.4933 39.0919 37.92V48.88C39.0919 49.2267 38.9585 49.5333 38.6919 49.8L34.2919 54.08L30.5719 57.28L34.9719 63.12L39.4919 72.8C39.5985 73.04 39.6785 73.28 39.7319 73.52C39.8119 73.7333 39.8519 74 39.8519 74.32V79C39.8519 79.6667 39.5185 80 38.8519 80H28.2919C27.7052 80 27.3052 79.7333 27.0919 79.2L20.6519 60.48H17.6519V79C17.6519 79.6667 17.3185 80 16.6519 80H5.97188ZM22.0519 50.68C24.2652 50.68 25.7719 50.2267 26.5719 49.32C27.3719 48.3867 27.7719 46.6533 27.7719 44.12C27.7719 41.56 27.3719 39.8267 26.5719 38.92C25.7719 37.9867 24.2652 37.52 22.0519 37.52C19.8652 37.52 18.3585 37.9867 17.5319 38.92C16.7052 39.8267 16.2919 41.56 16.2919 44.12C16.2919 46.6533 16.7052 48.3867 17.5319 49.32C18.3585 50.2267 19.8652 50.68 22.0519 50.68ZM56.2219 80C55.6085 80 55.0752 79.7733 54.6219 79.32L46.6219 71.32C46.1685 70.8933 45.9419 70.36 45.9419 69.72V46.28C45.9419 45.64 46.1685 45.1067 46.6219 44.68L54.6219 36.68C55.0752 36.2267 55.6085 36 56.2219 36H77.6219C78.2885 36 78.6219 36.3333 78.6219 37V79C78.6219 79.6667 78.2885 80 77.6219 80H69.3019C68.9552 80 68.6885 79.9333 68.5019 79.8C68.3419 79.6667 68.1552 79.5067 67.9419 79.32L65.9419 77.32L63.9419 79.32C63.5152 79.7733 62.9819 80 62.3419 80H56.2219ZM60.9019 70.68H63.7019C64.5552 70.68 65.1419 70.5067 65.4619 70.16C65.7819 69.8133 65.9419 69.2 65.9419 68.32V45.32H60.9019C60.0219 45.32 59.4219 45.4933 59.1019 45.84C58.7819 46.1867 58.6219 46.8 58.6219 47.68V68.32C58.6219 69.2 58.7819 69.8133 59.1019 70.16C59.4219 70.5067 60.0219 70.68 60.9019 70.68ZM88.9406 92C88.274 92 87.9406 91.6667 87.9406 91V37C87.9406 36.3333 88.274 36 88.9406 36H97.2206C97.7006 36 98.1673 36.2267 98.6206 36.68L100.621 38.68L102.621 36.68C103.047 36.2267 103.581 36 104.221 36H110.341C110.954 36 111.487 36.2267 111.941 36.68L119.941 44.68C120.394 45.1067 120.621 45.64 120.621 46.28V69.72C120.621 70.36 120.394 70.8933 119.941 71.32L111.941 79.32C111.487 79.7733 110.954 80 110.341 80H104.221C103.581 80 103.047 79.7733 102.621 79.32L100.621 77.32V91C100.621 91.6667 100.287 92 99.6206 92H88.9406ZM100.621 70.68H105.661C106.541 70.68 107.141 70.5067 107.461 70.16C107.781 69.8133 107.941 69.2 107.941 68.32V47.68C107.941 46.8 107.781 46.1867 107.461 45.84C107.141 45.4933 106.541 45.32 105.661 45.32H102.861C102.007 45.32 101.421 45.4933 101.101 45.84C100.781 46.1867 100.621 46.8 100.621 47.68V70.68ZM130.972 80C130.305 80 129.972 79.6667 129.972 79V27.68C129.972 27.0133 130.305 26.68 130.972 26.68H153.692C154.332 26.68 154.865 26.8933 155.292 27.32L163.292 35.32C163.745 35.7733 163.972 36.3067 163.972 36.92V79C163.972 79.6667 163.639 80 162.972 80H151.652C150.985 80 150.652 79.6667 150.652 79V37.32H143.292V79C143.292 79.6667 142.959 80 142.292 80H130.972ZM183.566 80C182.952 80 182.419 79.7733 181.966 79.32L173.966 71.32C173.512 70.8933 173.286 70.36 173.286 69.72V46.28C173.286 45.64 173.512 45.1067 173.966 44.68L181.966 36.68C182.419 36.2267 182.952 36 183.566 36H204.966C205.632 36 205.966 36.3333 205.966 37V79C205.966 79.6667 205.632 80 204.966 80H196.646C196.299 80 196.032 79.9333 195.846 79.8C195.686 79.6667 195.499 79.5067 195.286 79.32L193.286 77.32L191.286 79.32C190.859 79.7733 190.326 80 189.686 80H183.566ZM188.246 70.68H191.046C191.899 70.68 192.486 70.5067 192.806 70.16C193.126 69.8133 193.286 69.2 193.286 68.32V45.32H188.246C187.366 45.32 186.766 45.4933 186.446 45.84C186.126 46.1867 185.966 46.8 185.966 47.68V68.32C185.966 69.2 186.126 69.8133 186.446 70.16C186.766 70.5067 187.366 70.68 188.246 70.68ZM216.284 80C215.618 80 215.284 79.6667 215.284 79V37C215.284 36.3333 215.618 36 216.284 36H234.484C235.098 36 235.631 36.2267 236.084 36.68L241.004 41.6H242.484L247.404 36.68C247.858 36.2267 248.391 36 249.004 36H257.684C258.298 36 258.831 36.2267 259.284 36.68L267.284 44.68C267.738 45.1067 267.964 45.64 267.964 46.28V79C267.964 79.6667 267.631 80 266.964 80H256.284C255.618 80 255.284 79.6667 255.284 79V47.68C255.284 46.56 254.724 46 253.604 46H247.964V79C247.964 79.6667 247.631 80 246.964 80H236.284C235.618 80 235.284 79.6667 235.284 79V47.68C235.284 46.56 234.724 46 233.604 46H227.964V79C227.964 79.6667 227.631 80 226.964 80H216.284ZM295.236 80C294.969 80 294.676 79.96 294.356 79.88C294.062 79.8 293.782 79.7333 293.516 79.68L286.396 77.92L278.236 75.2C277.436 74.9333 277.036 74.16 277.036 72.88V46.28C277.036 45.64 277.262 45.1067 277.716 44.68L285.716 36.68C286.169 36.2267 286.702 36 287.316 36H300.116C300.729 36 301.262 36.2267 301.716 36.68L309.716 44.68C310.169 45.1067 310.396 45.64 310.396 46.28V62.68H288.916L288.636 68L294.316 69.88L304.516 70.6C304.969 70.68 305.196 70.9867 305.196 71.52V79C305.196 79.6667 304.862 80 304.196 80H295.236ZM293.636 56.4H294.396C295.702 56.4 296.742 55.9067 297.516 54.92C298.316 53.9333 298.716 52.6 298.716 50.92V50.12C298.716 48.4667 298.316 47.1467 297.516 46.16C296.742 45.1733 295.702 44.68 294.396 44.68H293.596C292.316 44.68 291.289 45.1733 290.516 46.16C289.769 47.1467 289.396 48.4667 289.396 50.12V50.92C289.396 52.6 289.769 53.9333 290.516 54.92C291.289 55.9067 292.329 56.4 293.636 56.4ZM330.856 79.96C330.19 79.96 329.856 79.6 329.856 78.88V66.16C329.856 65.44 330.19 65.08 330.856 65.08H343.656C344.323 65.08 344.656 65.44 344.656 66.16V78.88C344.656 79.6 344.323 79.96 343.656 79.96H330.856ZM330.856 52.36C330.19 52.36 329.856 52 329.856 51.28V38.56C329.856 37.84 330.19 37.48 330.856 37.48H343.656C344.323 37.48 344.656 37.84 344.656 38.56V51.28C344.656 52 344.323 52.36 343.656 52.36H330.856Z" fill="#D48F31"/>
</svg>
